# xmcd
#
# Track frame offsets: 
#        183
#        46345
#        75378
#        104658
#        159708
#
# Disc length: 2543 seconds
#
# Revision: 1
# Processed by: cddbd v1.5.2PL0 Copyright (c) Steve Scherf et al.
# Submitted via: ExactAudioCopy v1.0b6
#
DISCID=3609ed05
DTITLE=Karl "Bummi" Fian - Fian
DYEAR=1988
DGENRE=Jazz
TTITLE0=Die grüne Gustav
TTITLE1=Triholjoh
TTITLE2=Nur bei Regenwetter
TTITLE3=Immub Naif
TTITLE4=Inne Anne Hans
EXTD=YEAR: 1988
EXTT0=
EXTT1=
EXTT2=
EXTT3=
EXTT4=
PLAYORDER=
